<?xml version="1.0" encoding="UTF-8" standalone="no"?>
<svg
   xmlns:dc="http://purl.org/dc/elements/1.1/"
   xmlns:cc="http://creativecommons.org/ns#"
   xmlns:rdf="http://www.w3.org/1999/02/22-rdf-syntax-ns#"
   xmlns:svg="http://www.w3.org/2000/svg"
   xmlns="http://www.w3.org/2000/svg"
   xmlns:sodipodi="http://sodipodi.sourceforge.net/DTD/sodipodi-0.dtd"
   xmlns:inkscape="http://www.inkscape.org/namespaces/inkscape"
   id="Logo_FIXED"
   data-name="Logo — FIXED"
   version="1.1"
   viewBox="0 0 400 400"
   sodipodi:docname="twitter.svg"
   inkscape:version="0.92pre2 r">
  <sodipodi:namedview
     pagecolor="#ffffff"
     bordercolor="#666666"
     borderopacity="1"
     objecttolerance="10"
     gridtolerance="10"
     guidetolerance="10"
     inkscape:pageopacity="0"
     inkscape:pageshadow="2"
     inkscape:window-width="785"
     inkscape:window-height="480"
     id="namedview15"
     showgrid="false"
     inkscape:zoom="0.59"
     inkscape:cx="200"
     inkscape:cy="200"
     inkscape:window-x="0"
     inkscape:window-y="27"
     inkscape:window-maximized="0"
     inkscape:current-layer="Logo_FIXED" />
  <metadata
     id="metadata2">
    <rdf:RDF>
      <cc:Work
         rdf:about="">
        <dc:format>image/svg+xml</dc:format>
        <dc:type
           rdf:resource="http://purl.org/dc/dcmitype/StillImage" />
        <dc:title>Twitter_Logo_Blue</dc:title>
      </cc:Work>
    </rdf:RDF>
  </metadata>
  <defs
     id="defs6">
    <style
       id="style4">.cls-1{fill:none;}.cls-2{fill:#1da1f2;}</style>
  </defs>
  <title
     id="title8">Twitter_Logo_Blue</title>
  <rect
     class="cls-1"
     width="400"
     height="400"
     id="rect10" />
  <path
     class="cls-2"
     d="m 132.69,322.34 c 138.37,0 214.06,-114.64 214.06,-214.06 0,-3.2562 0,-6.4977 -0.22001,-9.7245 a 153.07,153.07 0 0 0 37.534,-38.942 150.17,150.17 0 0 1 -43.21,11.837 75.494,75.494 0 0 0 33.075,-41.612 150.77,150.77 0 0 1 -47.772,18.261 75.303,75.303 0 0 0 -128.21,68.615 213.59,213.59 0 0 1 -155.05,-78.603 75.288,75.288 0 0 0 23.292,100.43 74.672,74.672 0 0 1 -34.146,-9.4165 v 0.95339 a 75.259,75.259 0 0 0 60.357,73.748 75.112,75.112 0 0 1 -33.97,1.2907 75.318,75.318 0 0 0 70.287,52.246 150.96,150.96 0 0 1 -93.432,32.268 153.14,153.14 0 0 1 -17.909,-1.0854 212.99,212.99 0 0 0 115.32,33.735"
     id="path12"
     inkscape:connector-curvature="0"
     style="fill:#1da1f2;stroke-width:1.46669996" />
</svg>
